<svg width="18" height="14" viewBox="0 0 18 14" fill="none" xmlns="http://www.w3.org/2000/svg">
<path d="M15.6667 0.333344H2.33335C1.41669 0.333344 0.67502 1.08334 0.67502 2.00001L0.666687 12C0.666687 12.9167 1.41669 13.6667 2.33335 13.6667H15.6667C16.5834 13.6667 17.3334 12.9167 17.3334 12V2.00001C17.3334 1.08334 16.5834 0.333344 15.6667 0.333344ZM15.3334 3.87501L9.44169 7.55834C9.17502 7.72501 8.82502 7.72501 8.55835 7.55834L2.66669 3.87501C2.58313 3.8281 2.50995 3.76473 2.45159 3.68872C2.39324 3.61272 2.35091 3.52566 2.32717 3.43282C2.30343 3.33998 2.29877 3.24329 2.31348 3.1486C2.3282 3.05391 2.36197 2.96319 2.41276 2.88193C2.46354 2.80067 2.53029 2.73056 2.60896 2.67584C2.68763 2.62112 2.77658 2.58294 2.87043 2.56359C2.96429 2.54425 3.06109 2.54415 3.15498 2.5633C3.24888 2.58245 3.33791 2.62045 3.41669 2.67501L9.00002 6.16668L14.5834 2.67501C14.6621 2.62045 14.7512 2.58245 14.8451 2.5633C14.939 2.54415 15.0358 2.54425 15.1296 2.56359C15.2235 2.58294 15.3124 2.62112 15.3911 2.67584C15.4698 2.73056 15.5365 2.80067 15.5873 2.88193C15.6381 2.96319 15.6718 3.05391 15.6866 3.1486C15.7013 3.24329 15.6966 3.33998 15.6729 3.43282C15.6491 3.52566 15.6068 3.61272 15.5484 3.68872C15.4901 3.76473 15.4169 3.8281 15.3334 3.87501Z" fill="#BDBDBD"/>
</svg>
