<svg width="8" height="8" viewBox="0 0 8 8" fill="none" xmlns="http://www.w3.org/2000/svg">
<path fill-rule="evenodd" clip-rule="evenodd" d="M3.99999 0.333252C4.12686 0.333252 4.24273 0.405276 4.29889 0.519044L5.25141 2.44874L7.38153 2.76009C7.50705 2.77844 7.61128 2.86644 7.6504 2.98711C7.68953 3.10778 7.65677 3.24019 7.5659 3.3287L6.02483 4.82971L6.38853 6.95024C6.40997 7.0753 6.35856 7.20169 6.2559 7.27627C6.15324 7.35085 6.01714 7.36067 5.90484 7.30161L3.99999 6.29987L2.09514 7.30161C1.98283 7.36067 1.84674 7.35085 1.74408 7.27627C1.64142 7.20169 1.59 7.0753 1.61145 6.95024L1.97515 4.82971L0.434078 3.3287C0.343206 3.24019 0.310448 3.10778 0.349574 2.98711C0.3887 2.86644 0.492927 2.77844 0.618447 2.76009L2.74857 2.44874L3.70109 0.519044C3.75724 0.405276 3.87312 0.333252 3.99999 0.333252ZM3.99999 1.41967L3.26889 2.90079C3.22038 2.99908 3.12665 3.06723 3.0182 3.08308L1.38279 3.32212L2.5659 4.47447C2.64452 4.55105 2.68041 4.66142 2.66186 4.7696L2.38272 6.39714L3.84484 5.62823C3.94197 5.57715 4.05801 5.57715 4.15514 5.62823L5.61726 6.39714L5.33812 4.7696C5.31957 4.66142 5.35545 4.55105 5.43408 4.47447L6.61719 3.32212L4.98178 3.08308C4.87333 3.06723 4.7796 2.99908 4.73109 2.90079L3.99999 1.41967Z" fill="#F2994A"/>
<path d="M2.33333 5L1 3L3 2.66667L4 1L5 2.66667L7 3.33333L5.66667 4.66667L6 7L4 6L2 7L2.33333 5Z" fill="#F2994A"/>
</svg>
